<mxfile host="app.diagrams.net" agent="Mozilla/5.0 (Windows NT 10.0; Win64; x64) AppleWebKit/537.36 (KHTML, like Gecko) Chrome/140.0.0.0 Safari/537.36" version="28.2.0">
  <diagram name="Página-1" id="xtYUn_-fqWDzqGOe-1zd">
    <mxGraphModel dx="1042" dy="527" grid="1" gridSize="10" guides="1" tooltips="1" connect="1" arrows="1" fold="1" page="1" pageScale="1" pageWidth="827" pageHeight="1169" math="0" shadow="0">
      <root>
        <mxCell id="0" />
        <mxCell id="1" parent="0" />
        <mxCell id="NJV9SEIxeZZakfGFqllM-6" style="edgeStyle=orthogonalEdgeStyle;rounded=0;orthogonalLoop=1;jettySize=auto;html=1;entryX=0.5;entryY=0;entryDx=0;entryDy=0;" parent="1" source="NJV9SEIxeZZakfGFqllM-1" target="NJV9SEIxeZZakfGFqllM-2" edge="1">
          <mxGeometry relative="1" as="geometry" />
        </mxCell>
        <mxCell id="NJV9SEIxeZZakfGFqllM-1" value="inicio" style="strokeWidth=2;html=1;shape=mxgraph.flowchart.terminator;whiteSpace=wrap;" parent="1" vertex="1">
          <mxGeometry x="364" y="53" width="100" height="40" as="geometry" />
        </mxCell>
        <mxCell id="NJV9SEIxeZZakfGFqllM-7" style="edgeStyle=orthogonalEdgeStyle;rounded=0;orthogonalLoop=1;jettySize=auto;html=1;entryX=0.5;entryY=0;entryDx=0;entryDy=0;entryPerimeter=0;" parent="1" source="NJV9SEIxeZZakfGFqllM-2" target="NJV9SEIxeZZakfGFqllM-15" edge="1">
          <mxGeometry relative="1" as="geometry">
            <mxPoint x="414" y="200" as="targetPoint" />
          </mxGeometry>
        </mxCell>
        <mxCell id="NJV9SEIxeZZakfGFqllM-2" value="inteiro idade" style="rounded=1;whiteSpace=wrap;html=1;absoluteArcSize=1;arcSize=14;strokeWidth=2;" parent="1" vertex="1">
          <mxGeometry x="329" y="120" width="170" height="50" as="geometry" />
        </mxCell>
        <mxCell id="NJV9SEIxeZZakfGFqllM-15" value="Digite sua idade:" style="strokeWidth=2;html=1;shape=mxgraph.flowchart.display;whiteSpace=wrap;" parent="1" vertex="1">
          <mxGeometry x="339" y="200" width="150" height="60" as="geometry" />
        </mxCell>
        <mxCell id="NJV9SEIxeZZakfGFqllM-17" value="&lt;div&gt;&lt;br&gt;&lt;/div&gt;idade" style="html=1;strokeWidth=2;shape=manualInput;whiteSpace=wrap;rounded=1;size=26;arcSize=11;" parent="1" vertex="1">
          <mxGeometry x="342" y="283" width="150" height="60" as="geometry" />
        </mxCell>
        <mxCell id="NJV9SEIxeZZakfGFqllM-18" style="edgeStyle=orthogonalEdgeStyle;rounded=0;orthogonalLoop=1;jettySize=auto;html=1;entryX=0.477;entryY=0.2;entryDx=0;entryDy=0;entryPerimeter=0;" parent="1" source="NJV9SEIxeZZakfGFqllM-15" target="NJV9SEIxeZZakfGFqllM-17" edge="1">
          <mxGeometry relative="1" as="geometry" />
        </mxCell>
        <mxCell id="NJV9SEIxeZZakfGFqllM-19" value="idade &amp;gt;= 18" style="strokeWidth=2;html=1;shape=mxgraph.flowchart.decision;whiteSpace=wrap;" parent="1" vertex="1">
          <mxGeometry x="356" y="375" width="122" height="100" as="geometry" />
        </mxCell>
        <mxCell id="NJV9SEIxeZZakfGFqllM-20" style="edgeStyle=orthogonalEdgeStyle;rounded=0;orthogonalLoop=1;jettySize=auto;html=1;entryX=0.5;entryY=0;entryDx=0;entryDy=0;entryPerimeter=0;" parent="1" source="NJV9SEIxeZZakfGFqllM-17" target="NJV9SEIxeZZakfGFqllM-19" edge="1">
          <mxGeometry relative="1" as="geometry" />
        </mxCell>
        <mxCell id="NJV9SEIxeZZakfGFqllM-22" value="Você é maior de idade" style="strokeWidth=2;html=1;shape=mxgraph.flowchart.display;whiteSpace=wrap;" parent="1" vertex="1">
          <mxGeometry x="342" y="512.5" width="150" height="65" as="geometry" />
        </mxCell>
        <mxCell id="NJV9SEIxeZZakfGFqllM-23" style="edgeStyle=orthogonalEdgeStyle;rounded=0;orthogonalLoop=1;jettySize=auto;html=1;entryX=0.5;entryY=0;entryDx=0;entryDy=0;entryPerimeter=0;" parent="1" source="NJV9SEIxeZZakfGFqllM-19" target="NJV9SEIxeZZakfGFqllM-22" edge="1">
          <mxGeometry relative="1" as="geometry" />
        </mxCell>
        <mxCell id="NJV9SEIxeZZakfGFqllM-24" value="Você é menor de idade" style="strokeWidth=2;html=1;shape=mxgraph.flowchart.display;whiteSpace=wrap;" parent="1" vertex="1">
          <mxGeometry x="550" y="393" width="150" height="65" as="geometry" />
        </mxCell>
        <mxCell id="NJV9SEIxeZZakfGFqllM-25" style="edgeStyle=orthogonalEdgeStyle;rounded=0;orthogonalLoop=1;jettySize=auto;html=1;entryX=0;entryY=0.5;entryDx=0;entryDy=0;entryPerimeter=0;" parent="1" source="NJV9SEIxeZZakfGFqllM-19" target="NJV9SEIxeZZakfGFqllM-24" edge="1">
          <mxGeometry relative="1" as="geometry" />
        </mxCell>
        <mxCell id="NJV9SEIxeZZakfGFqllM-26" value="FALSO" style="text;html=1;align=center;verticalAlign=middle;resizable=0;points=[];autosize=1;strokeColor=none;fillColor=none;" parent="1" vertex="1">
          <mxGeometry x="478" y="400" width="60" height="30" as="geometry" />
        </mxCell>
        <mxCell id="NJV9SEIxeZZakfGFqllM-27" value="VERDADEIRO" style="text;html=1;align=center;verticalAlign=middle;resizable=0;points=[];autosize=1;strokeColor=none;fillColor=none;" parent="1" vertex="1">
          <mxGeometry x="418" y="476" width="100" height="30" as="geometry" />
        </mxCell>
        <mxCell id="NJV9SEIxeZZakfGFqllM-28" value="fim" style="strokeWidth=2;html=1;shape=mxgraph.flowchart.terminator;whiteSpace=wrap;" parent="1" vertex="1">
          <mxGeometry x="367" y="604" width="100" height="40" as="geometry" />
        </mxCell>
        <mxCell id="NJV9SEIxeZZakfGFqllM-29" style="edgeStyle=orthogonalEdgeStyle;rounded=0;orthogonalLoop=1;jettySize=auto;html=1;entryX=0.5;entryY=0;entryDx=0;entryDy=0;entryPerimeter=0;" parent="1" source="NJV9SEIxeZZakfGFqllM-22" target="NJV9SEIxeZZakfGFqllM-28" edge="1">
          <mxGeometry relative="1" as="geometry" />
        </mxCell>
        <mxCell id="NJV9SEIxeZZakfGFqllM-30" style="edgeStyle=orthogonalEdgeStyle;rounded=0;orthogonalLoop=1;jettySize=auto;html=1;entryX=1;entryY=0.5;entryDx=0;entryDy=0;entryPerimeter=0;" parent="1" source="NJV9SEIxeZZakfGFqllM-24" target="NJV9SEIxeZZakfGFqllM-28" edge="1">
          <mxGeometry relative="1" as="geometry">
            <Array as="points">
              <mxPoint x="625" y="624" />
            </Array>
          </mxGeometry>
        </mxCell>
      </root>
    </mxGraphModel>
  </diagram>
</mxfile>
